<svg version="1.1" xmlns="http://www.w3.org/2000/svg" xmlns:xlink="http://www.w3.org/1999/xlink" width="700.3155517578125" height="305.484130859375"><defs></defs><g transform="translate(-420.7280578613281,263.920654296875)"><rect fill="rgb(255,255,255)" stroke="none" x="0" y="0" width="700.3155517578125" height="305.484130859375" fill-opacity="0" transform="translate(420.7280578613281,-263.920654296875)"></rect><g transform="translate(379.618262205107,152.7417814389815) rotate(-14.999999999999998,0,0) translate(-379.618262205107,-152.7417814389815) matrix(1,0,-0.2679491924311227,1,379.618262205107,152.7417814389815)"><path fill="rgb(0,221,68)" fill-opacity="1" d="M147.22-203.39L147.22-203.39L144.80-202.88Q144.00-202.88 144.00-203.90Q144.00-204.93 144.58-205.22L144.58-205.22Q151.62-209.25 158.06-209.25L158.06-209.25Q160.92-209.25 162.42-207.09Q163.92-204.93 163.92-201.30Q163.92-197.68 158.83-188.67Q153.74-179.66 145.24-168.27Q136.75-156.88 123.71-143.37Q110.67-129.85 97.53-119.56Q84.38-109.27 74.02-104.00Q63.65-98.73 54.42-98.73L54.42-98.73Q48.49-98.73 45.52-102.79Q42.56-106.86 42.56-112.02Q42.56-117.18 46.04-125.28Q49.52-133.37 54.42-141.32Q59.33-149.26 65.78-158.05L65.78-158.05Q75.44-171.46 86.06-183.91L86.06-183.91Q74.27-174.09 69.99-172.41Q65.70-170.72 62.59-170.72Q59.48-170.72 57.76-173.32Q56.03-175.92 56.03-178.96Q56.03-182.00 58.49-185.04Q60.94-188.08 63.14-188.08L63.14-188.08Q63.94-188.08 63.94-187.50Q63.94-186.91 63.40-186.14Q62.85-185.37 62.85-185.08L62.85-185.08Q62.85-184.27 64.09-184.27Q65.34-184.27 67.83-185.37Q70.32-186.47 80.17-193.06Q90.02-199.65 94.63-203.97L94.63-203.97Q96.46-205.59 99.87-205.59Q103.28-205.59 106.72-203.94Q110.16-202.29 110.16-200.61L110.16-200.61Q110.16-200.24 110.01-199.91Q109.87-199.58 109.72-198.44Q109.57-197.31 108.59-195.73Q107.60-194.16 93.39-174.31L93.39-174.31Q57.87-124.80 57.87-115.79L57.87-115.79Q57.87-112.50 60.43-112.50L60.43-112.50Q63.94-112.50 74.05-118.90Q84.16-125.31 92.80-133.11Q101.44-140.91 109.79-149.56Q118.14-158.20 127.01-168.38Q135.87-178.56 142.02-188.08Q148.17-197.60 148.17-202.51L148.17-202.51Q148.17-203.39 147.22-203.39ZM158.87-144.28L155.79-139.67Q173.08-159.30 185.23-159.30L185.23-159.30Q188.24-159.30 190.18-157.50Q192.12-155.71 192.12-152.85Q192.12-150.00 188.05-143.29Q183.99-136.59 180.55-131.98L180.55-131.98Q178.71-129.63 176.41-129.63Q174.10-129.63 172.82-131.32Q171.54-133.00 171.54-135.27L171.54-135.27Q171.54-140.33 176.96-146.70L176.96-146.70L176.81-146.85Q174.39-146.63 164.84-137.32Q155.28-128.02 148.58-120.66Q141.87-113.30 134.04-102.75L134.04-102.75Q131.77-99.60 130.19-99.60Q128.62-99.60 126.02-100.59Q123.42-101.58 122.87-102.02Q122.32-102.46 122.32-103.49Q122.32-104.51 122.90-105.87Q123.49-107.22 125.07-109.71Q126.64-112.20 129.83-117.77Q133.01-123.34 139.75-134.61Q146.49-145.89 147.81-148.24L147.81-148.24Q150.59-153.07 152.35-155.27L152.35-155.27Q155.64-159.44 163.48-159.44L163.48-159.44Q165.24-159.44 165.24-157.25L165.24-157.25Q165.24-153.80 158.87-144.28L158.87-144.28ZM231.89-180.17L231.89-180.17Q231.89-176.00 228.01-171.78Q224.13-167.57 219.91-167.57Q215.70-167.57 215.70-171.97Q215.70-176.36 219.40-180.35Q223.10-184.35 227.57-184.35L227.57-184.35Q229.55-184.35 230.72-183.25Q231.89-182.15 231.89-180.17ZM220.02-116.23L220.02-116.23Q220.02-114.03 219.58-113.08L219.58-113.08Q216.00-105.76 208.16-101.25Q200.32-96.75 194.54-96.75Q188.75-96.75 184.57-100.63Q180.40-104.51 180.40-108.54Q180.40-112.57 184.43-120.26Q188.46-127.95 192.48-134.47Q196.51-140.99 196.51-141.54Q196.51-142.09 195.01-143.70Q193.51-145.31 193.51-146.08Q193.51-146.85 196.55-150.11Q199.59-153.36 203.95-156.55Q208.30-159.74 210.61-159.74Q212.92-159.74 214.75-157.69Q216.58-155.63 216.58-153.95Q216.58-152.27 199.15-122.24L199.15-122.24Q198.93-121.80 197.94-120.30Q196.95-118.79 196.40-117.81Q195.85-116.82 195.12-115.42L195.12-115.42Q193.66-112.50 193.66-110.52L193.66-110.52Q193.66-108.03 197.03-108.03Q200.39-108.03 204.02-110.33Q207.65-112.64 210.28-115.42L210.28-115.42Q217.17-122.82 218.12-122.82L218.12-122.82Q220.02-122.82 220.02-116.23ZM222.66-114.40L222.66-114.40L222.59-113.23Q222.59-111.40 223.98-110.08Q225.37-108.76 226.54-108.76L226.54-108.76Q235.33-108.76 242.11-111.40Q248.88-114.03 248.88-116.67L248.88-116.67Q248.88-117.92 246.43-118.83Q243.97-119.75 238.15-121.10Q232.33-122.46 229.69-123.23Q227.05-123.99 225.52-124.65Q223.98-125.31 222.37-126.48L222.37-126.48Q218.92-128.90 218.92-133.70Q218.92-138.50 222.48-143.22Q226.03-147.94 231.38-151.31Q236.72-154.68 242.88-157.25L242.88-157.25Q255.03-162.30 263.31-162.30L263.31-162.30Q271.44-162.30 273.34-158.78L273.34-158.78Q273.93-157.54 273.93-156.00L273.93-156.00L273.93-155.49Q273.93-151.61 272.28-149.41Q270.63-147.21 267.08-145.45Q263.53-143.70 261.44-143.70Q259.35-143.70 258.81-143.99Q258.26-144.28 257.89-144.76Q257.52-145.23 256.97-145.45Q256.42-145.67 256.42-146.55Q256.42-147.43 257.16-148.35Q257.89-149.26 258.18-150.29L258.18-150.29Q253.35-150.07 248.08-148.05Q242.80-146.04 239.03-143.55Q235.26-141.06 232.77-138.79Q230.28-136.52 230.28-135.46Q230.28-134.39 233.65-133.74L233.65-133.74Q248.81-130.73 253.57-128.54Q258.33-126.34 260.16-123.55Q261.99-120.77 261.99-118.50L261.99-118.50Q261.99-113.81 258.26-109.64Q254.52-105.46 249.03-102.83L249.03-102.83Q237.24-97.04 228.48-97.04Q219.73-97.04 216.40-99.71Q213.07-102.39 213.07-106.05Q213.07-109.71 214.93-112.82Q216.80-115.94 219.73-115.94Q222.66-115.94 222.66-114.40ZM334.21-121.36L334.21-121.36Q334.72-117.99 334.72-116.05Q334.72-114.11 334.03-112.68Q333.33-111.25 330.95-108.65Q328.57-106.05 325.27-103.41L325.27-103.41Q317.22-97.04 308.79-97.04L308.79-97.04Q296.71-97.04 296.71-107.73L296.71-107.73Q296.71-117.04 312.89-144.80L312.89-144.80Q313.48-145.82 313.70-146.26L313.70-146.26Q308.06-142.30 292.13-124.69Q276.20-107.08 270.93-99.75L270.93-99.75Q270.49-99.09 268.73-98.29Q266.97-97.48 265.98-97.48Q264.99-97.48 263.86-98.10Q262.72-98.73 262.43-98.73L262.43-98.73Q261.48-98.73 261.48-99.35Q261.48-99.97 264.08-106.09Q266.68-112.20 270.93-121.28L270.93-121.28Q282.57-146.33 305.57-186.47L305.57-186.47Q313.63-200.53 318.17-206.39L318.17-206.39Q321.39-210.57 329.01-210.57L329.01-210.57Q330.62-210.57 330.84-209.61Q331.06-208.66 331.06-207.56Q331.06-206.46 330.62-205.37L330.62-205.37L322.78-193.13Q299.49-156.81 287.70-132.93L287.70-132.93Q299.13-146.85 309.89-154.39L309.89-154.39Q316.56-159.15 319.89-159.15Q323.22-159.15 325.93-158.09Q328.64-157.03 328.64-153.00L328.64-153.00Q328.64-151.53 323.88-142.16L323.88-142.16Q309.60-114.03 309.60-110.92Q309.60-107.81 312.16-107.81L312.16-107.81Q315.90-107.81 323.66-115.06L323.66-115.06Q329.52-120.55 331.06-122.09L331.06-122.09Q331.94-122.75 332.67-122.75L332.67-122.75Q334.06-122.75 334.21-121.36ZM376.40-180.17L376.40-180.17Q376.40-176.00 372.51-171.78Q368.63-167.57 364.42-167.57Q360.21-167.57 360.21-171.97Q360.21-176.36 363.91-180.35Q367.61-184.35 372.07-184.35L372.07-184.35Q374.05-184.35 375.22-183.25Q376.40-182.15 376.40-180.17ZM364.53-116.23L364.53-116.23Q364.53-114.03 364.09-113.08L364.09-113.08Q360.50-105.76 352.67-101.25Q344.83-96.75 339.04-96.75Q333.26-96.75 329.08-100.63Q324.91-104.51 324.91-108.54Q324.91-112.57 328.93-120.26Q332.96-127.95 336.99-134.47Q341.02-140.99 341.02-141.54Q341.02-142.09 339.52-143.70Q338.02-145.31 338.02-146.08Q338.02-146.85 341.06-150.11Q344.10-153.36 348.45-156.55Q352.81-159.74 355.12-159.74Q357.43-159.74 359.26-157.69Q361.09-155.63 361.09-153.95Q361.09-152.27 343.66-122.24L343.66-122.24Q343.44-121.80 342.45-120.30Q341.46-118.79 340.91-117.81Q340.36-116.82 339.63-115.42L339.63-115.42Q338.16-112.50 338.16-110.52L338.16-110.52Q338.16-108.03 341.53-108.03Q344.90-108.03 348.53-110.33Q352.15-112.64 354.79-115.42L354.79-115.42Q361.67-122.82 362.63-122.82L362.63-122.82Q364.53-122.82 364.53-116.23ZM397.34-111.03L397.34-111.03Q397.34-107.81 401.74-107.81L401.74-107.81Q404.08-107.81 407.63-110.15Q411.19-112.50 414.04-115.28L414.04-115.28Q421.66-122.82 422.68-122.82L422.68-122.82Q424.59-122.82 424.59-117.33Q424.59-111.84 421.15-109.79L421.15-109.79Q410.67-100.34 404.96-98.29L404.96-98.29Q401.74-97.19 397.86-97.26Q393.97-97.33 390.17-100.63Q386.36-103.93 386.36-108.65Q386.36-113.37 388.85-119.38Q391.34-125.39 393.94-129.67Q396.54-133.96 400.35-139.63Q404.15-145.31 404.37-146.70L404.37-146.70L404.23-146.85Q401.81-146.63 392.25-137.32Q382.69-128.02 376.47-121.14Q370.24-114.25 361.60-102.75L361.60-102.75Q359.18-99.60 357.65-99.60Q356.11-99.60 353.51-100.59Q350.91-101.58 350.32-102.02Q349.74-102.46 349.74-103.34Q349.74-104.22 350.25-105.50Q350.76-106.78 351.24-107.62Q351.71-108.47 352.81-110.22Q353.91-111.98 357.17-117.66Q360.43-123.34 367.17-134.61Q373.91-145.89 375.22-148.24L375.22-148.24Q378.01-153.07 379.76-155.27L379.76-155.27Q383.06-159.44 390.90-159.44L390.90-159.44Q392.66-159.44 392.66-157.25L392.66-157.25Q392.66-153.80 386.28-144.28L386.28-144.28L383.21-139.67Q395.88-153.73 404.59-157.47L404.59-157.47Q408.84-159.30 412.25-159.30Q415.65-159.30 417.67-157.47Q419.68-155.63 419.68-153.40Q419.68-151.17 418.14-148.05Q416.61-144.94 415.03-142.49Q413.46-140.03 410.89-136.30Q408.33-132.56 408.11-132.23Q407.89-131.90 406.97-130.48Q406.06-129.05 405.62-128.39Q405.18-127.73 404.15-126.08Q403.13-124.43 402.51-123.34Q401.88-122.24 400.97-120.63Q400.05-119.01 399.50-117.84Q398.95-116.67 398.37-115.28L398.37-115.28Q397.34-112.71 397.34-111.03ZM489.48-178.34L489.48-178.34Q487.06-176.58 487.06-174.42Q487.06-172.26 490.29-172.26L490.29-172.26Q491.68-172.26 493.88-173.07L493.88-173.07L493.95-173.07Q494.32-173.07 494.32-171.57Q494.32-170.06 494.02-169.77L494.02-169.77Q486.48-164.42 481.28-164.42Q476.08-164.42 473.73-167.35Q471.39-170.28 471.39-175.01Q471.39-179.73 476.59-185.04Q481.79-190.35 490.58-194.86Q499.37-199.36 512.37-202.29Q525.37-205.22 541.59-205.22Q557.82-205.22 568.73-198.88Q579.64-192.55 579.64-184.46Q579.64-176.36 573.97-168.01Q568.29-159.66 559.76-153.47Q551.22-147.29 540.82-143.33Q530.42-139.38 522.22-139.38Q514.02-139.38 509.48-145.97L509.48-145.97Q498.34-128.46 494.39-122.05Q490.43-115.64 487.69-111.29Q484.94-106.93 483.44-104.44Q481.94-101.95 481.86-101.88L481.86-101.88Q480.33-100.19 478.57-100.19L478.57-100.19L474.98-99.53L473.22-99.68L471.98-99.68Q467.66-99.68 467.66-102.39L467.66-102.39Q467.66-105.83 482.08-128.32Q496.51-150.80 509.29-169.11Q522.07-187.42 524.20-189.69Q526.32-191.96 527.97-192.37Q529.62-192.77 533.28-192.77L533.28-192.77L536.94-192.77Q537.89-192.77 537.89-191.27Q537.89-189.77 537.53-189.18L537.53-189.18Q531.08-180.17 514.24-153.58L514.24-153.58Q514.82-152.41 516.18-152.12Q517.53-151.83 519.07-151.83L519.07-151.83L521.20-151.83Q527.93-151.83 535.77-155.09Q543.61-158.34 549.54-162.89Q555.47-167.43 559.46-172.37Q563.46-177.31 563.46-180.83Q563.46-184.35 561.26-187.13Q559.06-189.91 555.25-191.52L555.25-191.52Q547.78-194.67 537.13-194.67Q526.47-194.67 511.42-189.14Q496.37-183.61 489.48-178.34ZM612.97-155.42L612.97-155.42Q618.53-155.42 618.53-151.61L618.53-151.61Q618.53-149.56 617.58-148.60Q616.63-147.65 613.52-142.27Q610.40-136.88 606.63-128.50Q602.86-120.11 601.76-114.18L601.76-114.18Q601.54-113.45 601.54-112.13L601.54-112.13Q601.54-108.10 603.74-108.10Q605.94-108.10 608.94-110.19Q611.94-112.28 614.29-114.66Q616.63-117.04 618.86-119.53Q621.10-122.02 621.54-122.38Q621.98-122.75 622.86-122.75L622.86-122.75Q624.25-122.75 624.54-120.63Q624.83-118.50 624.83-116.23Q624.83-113.96 624.39-113.08L624.39-113.08Q622.27-108.91 615.06-103.05Q607.84-97.19 601.94-97.19Q596.05-97.19 593.27-100.78Q590.48-104.37 590.48-108.72Q590.48-113.08 591.95-116.38L591.95-116.38Q585.87-108.47 577.99-102.97Q570.12-97.48 565.14-97.48Q560.16-97.48 557.01-100.48L557.01-100.48Q552.98-104.22 552.98-110.85Q552.98-117.48 555.95-124.18Q558.92-130.88 563.75-136.41Q568.58-141.94 574.37-146.48L574.37-146.48Q586.53-156.00 596.78-156.00L596.78-156.00Q600.74-156.00 603.23-154.68Q605.72-153.36 606.38-151.39L606.38-151.39Q608.13-154.02 609.34-154.72Q610.55-155.42 612.97-155.42ZM603.23-147.29L603.23-147.29Q590.70-147.29 577.30-133.37L577.30-133.37Q572.54-128.39 568.55-121.43Q564.55-114.47 564.55-111.91Q564.55-109.35 566.02-109.35L566.02-109.35Q568.07-109.35 577.45-117.44Q586.82-125.53 589.90-129.34L589.90-129.34Q593.27-133.59 603.23-147.29ZM665.12-193.65L668.56-194.09L671.56-193.35Q672.22-193.35 672.73-192.70Q673.25-192.04 673.25-191.45Q673.25-190.86 671.71-188.30Q670.17-185.74 668.08-182.48Q666.00-179.22 665.85-178.93L665.85-178.93Q671.56-179.37 673.94-179.37Q676.32-179.37 677.20-179.04Q678.08-178.71 679.22-177.20Q680.35-175.70 681.30-174.93Q682.25-174.17 682.25-172.63Q682.25-171.09 680.39-170.03Q678.52-168.96 676.40-168.75L676.40-168.75Q659.40-167.06 657.65-166.99L657.65-166.99Q651.71-157.91 641.06-138.68Q630.40-119.45 629.74-114.62L629.74-114.62Q629.45-112.42 629.45-111.03L629.45-111.03Q629.45-108.17 632.45-108.17Q635.45-108.17 639.12-110.48Q642.78-112.79 645.85-115.50L645.85-115.50Q654.06-122.82 654.64-122.82L654.64-122.82Q656.55-122.82 656.55-116.23L656.55-116.23Q656.55-112.64 653.25-109.79L653.25-109.79Q645.85-103.41 640.80-100.19Q635.75-96.97 630.69-96.97L630.69-96.97Q629.59-96.97 628.64-97.19L628.64-97.19Q622.78-98.29 620.04-101.47Q617.29-104.66 617.33-110.08Q617.36-115.50 620.55-123.23Q623.73-130.95 628.57-139.67L628.57-139.67Q636.48-153.88 644.39-166.33L644.39-166.33L641.61-165.96Q633.11-165.01 631.72-165.01L631.72-165.01L631.06-165.01Q628.93-165.01 626.96-165.85Q624.98-166.69 624.98-167.94Q624.98-169.18 626.04-170.36Q627.10-171.53 627.32-172.19L627.32-172.19Q627.84-173.80 631.17-175.78Q634.50-177.75 636.19-177.86Q637.87-177.97 639.44-178.05Q641.02-178.12 642.96-178.19Q644.90-178.27 645.93-178.34L645.93-178.34L652.52-178.63Q658.67-187.86 660.98-190.50Q663.29-193.13 663.65-193.39Q664.02-193.65 665.12-193.65L665.12-193.65ZM700.79-154.54L700.79-154.54Q700.79-149.70 696.87-146.04Q692.95-142.38 687.97-142.38L687.97-142.38Q686.36-142.38 685.84-143.15Q685.33-143.92 685.33-145.16Q685.33-146.41 685.62-147.58L685.62-147.58Q682.99-146.70 679.76-144.87Q676.54-143.04 671.85-139.45Q667.17-135.86 667.17-134.10L667.17-134.10Q667.17-133.52 668.89-133.52Q670.61-133.52 674.20-134.72Q677.79-135.93 679.22-135.93Q680.64-135.93 681.08-135.79L681.08-135.79Q682.04-135.27 683.13-133.55Q684.23-131.83 684.23-130.84Q684.23-129.85 682.33-128.24Q680.42-126.63 678.01-125.79Q675.59-124.95 674.78-124.51L674.78-124.51Q659.33-115.86 659.33-112.64L659.33-112.64Q659.33-106.93 669.07-106.93L669.07-106.93Q675.30-106.93 681.60-110.88L681.60-110.88Q686.94-114.25 691.23-117.73Q695.51-121.21 696.65-122.02Q697.78-122.82 698.37-122.82L698.37-122.82Q700.27-122.82 700.27-118.57Q700.27-114.33 699.76-112.97Q699.25-111.62 696.83-109.64L696.83-109.64Q681.16-96.89 667.17-96.89L667.17-96.89Q659.70-96.89 655.23-98.95L655.23-98.95Q647.03-102.68 647.03-110.37L647.03-110.37Q647.03-120.48 661.01-125.68L661.01-125.68Q658.23-126.92 657.43-128.86Q656.62-130.81 656.62-135.09Q656.62-139.38 660.61-144.17Q664.60-148.97 670.39-152.05L670.39-152.05Q683.28-159.00 693.39-159.00L693.39-159.00Q695.80-159.00 698.30-157.83Q700.79-156.66 700.79-154.54ZM758.72-209.69Q762.24-209.69 764.91-207.60Q767.58-205.51 767.58-201.41Q767.58-197.31 763.04-188.56Q758.50-179.80 752.13-170.69Q745.76-161.57 737.70-151.31L737.70-151.31Q724.96-135.05 713.24-122.09L713.24-122.09Q713.16-121.21 712.61-118.83Q712.06-116.45 712.06-114.03Q712.06-111.62 714.30-109.68Q716.53-107.73 719.83-107.73Q723.12-107.73 726.90-110.08Q730.67-112.42 733.45-115.28L733.45-115.28Q740.78-122.82 742.53-122.82Q744.29-122.82 744.29-117.48L744.29-117.48L744.29-116.01Q744.29-113.15 743.27-111.84L743.27-111.84Q737.11-104.29 729.42-100.59Q721.73-96.89 714.85-96.89Q707.96-96.89 704.37-101.11Q700.79-105.32 700.79-112.64L700.79-112.64Q700.79-126.92 708.44-146.22Q716.09-165.52 725.69-179.07L725.69-179.07Q747.29-209.69 758.72-209.69L758.72-209.69ZM755.42-197.53L755.42-197.53Q755.42-198.63 754.69-198.63L754.69-198.63Q752.13-198.63 741.21-183.98Q730.30-169.33 725.43-160.62Q720.56-151.90 716.24-138.72L716.24-138.72Q724.88-148.97 740.15-170.69Q755.42-192.40 755.42-197.53Z"></path></g></g></svg>